<svg width="1436" height="168" viewBox="0 0 1436 168" fill="none" xmlns="http://www.w3.org/2000/svg">
<g opacity="0.6">
<path opacity="0.1" fill-rule="evenodd" clip-rule="evenodd" d="M0 168H1440V36.882C1440 36.882 1323.28 41.3324 1196.88 113.503C1154.79 137.538 1138.28 136.38 1104.27 131.99C1070.2 127.591 992.705 86.9786 992.705 86.9786C992.705 86.9786 927.318 59.3111 882.358 63.0085C857.934 65.0172 829.961 72.2166 787.957 80.2106C752.395 86.9786 641.353 103.981 584.918 109.965C528.483 115.949 504.069 119.021 468.173 118.7C412.677 118.204 365.174 105.779 331.102 100.094C297.03 94.4101 246.053 81.9382 175.426 66.1177C125.71 54.9813 0 23 0 23V168Z" fill="url(#paint0_linear_1331_2653)"/>
<path opacity="0.0851144" fill-rule="evenodd" clip-rule="evenodd" d="M0 106.8C0 106.8 206.57 15.8615 429 54.5439C498.208 66.5799 517.542 66.3251 605.549 86.8417C693.556 107.358 704.288 114.508 770.654 120.853C842.88 127.759 944.148 113.851 944.148 113.851C944.148 113.851 1134.69 85.2445 1197.28 103.563C1232.43 113.851 1275.57 132.331 1301.63 137.758C1322.24 142.053 1348.19 135.914 1379.54 120.853C1440 91.8116 1440 86.8417 1440 86.8417V168H0V106.8Z" fill="url(#paint1_linear_1331_2653)"/>
<path opacity="0.0123372" fill-rule="evenodd" clip-rule="evenodd" d="M0 109.837V168H1440C1440 168 1323.55 18.6964 1200.04 3.42501C1076.52 -11.8464 1017.15 26.7731 952.074 63.4654C887 100.158 805.217 119.381 776.891 123.201C740.526 128.105 707.015 135.307 654.333 109.837C620.28 93.3737 519 45.6855 478.948 45.6855C400.971 45.6855 304.053 65.0639 247.526 77.4575C170.439 94.3589 129.368 97.46 100.237 100.158C49.7454 104.834 0 109.837 0 109.837Z" fill="url(#paint2_linear_1331_2653)"/>
</g>
<defs>
<linearGradient id="paint0_linear_1331_2653" x1="23.134" y1="24.4307" x2="23.134" y2="164.772" gradientUnits="userSpaceOnUse">
<stop stop-color="#DC3A59"/>
<stop offset="1" stop-color="#DC3A59"/>
</linearGradient>
<linearGradient id="paint1_linear_1331_2653" x1="23.134" y1="44.2334" x2="23.134" y2="165.217" gradientUnits="userSpaceOnUse">
<stop stop-color="#DC3A59"/>
<stop offset="1" stop-color="#DC3A59"/>
</linearGradient>
<linearGradient id="paint2_linear_1331_2653" x1="186.701" y1="39.8233" x2="186.701" y2="164.26" gradientUnits="userSpaceOnUse">
<stop stop-color="white"/>
<stop offset="1" stop-color="#DC3A59"/>
</linearGradient>
</defs>
</svg>
