<svg width="141" height="141" viewBox="0 0 141 141" fill="none" xmlns="http://www.w3.org/2000/svg">
<path fill-rule="evenodd" clip-rule="evenodd" d="M70.5 0.375C31.7719 0.375 0.375 31.7719 0.375 70.5C0.375 109.228 31.7719 140.625 70.5 140.625C109.228 140.625 140.625 109.228 140.625 70.5C140.625 31.7719 109.228 0.375 70.5 0.375ZM100.896 58.6425C101.456 58.0027 101.882 57.2575 102.149 56.4506C102.417 55.6437 102.52 54.7915 102.453 53.944C102.386 53.0966 102.151 52.2711 101.76 51.5161C101.37 50.7611 100.832 50.0918 100.179 49.5476C99.5261 49.0034 98.7709 48.5953 97.9578 48.3473C97.1447 48.0993 96.2902 48.0164 95.4447 48.1035C94.5991 48.1907 93.7795 48.446 93.034 48.8546C92.2886 49.2631 91.6324 49.8166 91.104 50.4825L63.6915 83.3711L49.5071 69.1804C48.3048 68.0191 46.6945 67.3766 45.023 67.3911C43.3515 67.4056 41.7525 68.0761 40.5705 69.258C39.3886 70.44 38.7181 72.039 38.7036 73.7105C38.6891 75.382 39.3316 76.9923 40.4929 78.1946L59.6179 97.3197C60.2443 97.9457 60.9942 98.4343 61.8199 98.7544C62.6456 99.0745 63.5289 99.2191 64.4136 99.1789C65.2983 99.1387 66.1649 98.9147 66.9581 98.521C67.7514 98.1274 68.454 97.5727 69.021 96.8925L100.896 58.6425Z" fill="#ED1846"/>
</svg>
