<svg width="389" height="137" viewBox="0 0 389 137" fill="none" xmlns="http://www.w3.org/2000/svg">
<circle cx="5.5" cy="16.5" r="5.5" fill="#D8D8D8"/>
<circle cx="5.5" cy="37.5" r="5.5" fill="#D8D8D8"/>
<circle cx="5.5" cy="58.5" r="5.5" fill="#D8D8D8"/>
<circle cx="5.5" cy="79.5" r="5.5" fill="#D8D8D8"/>
<circle cx="5.5" cy="100.5" r="5.5" fill="#D8D8D8"/>
<circle cx="5.5" cy="121.5" r="5.5" fill="#D8D8D8"/>
<circle cx="26.5" cy="5.5" r="5.5" fill="#D8D8D8"/>
<circle cx="26.5" cy="26.5" r="5.5" fill="#D8D8D8"/>
<circle cx="26.5" cy="47.5" r="5.5" fill="#D8D8D8"/>
<circle cx="26.5" cy="68.5" r="5.5" fill="#D8D8D8"/>
<circle cx="26.5" cy="89.5" r="5.5" fill="#D8D8D8"/>
<circle cx="26.5" cy="110.5" r="5.5" fill="#D8D8D8"/>
<circle cx="26.5" cy="131.5" r="5.5" fill="#D8D8D8"/>
<circle cx="47.5" cy="16.5" r="5.5" fill="#D8D8D8"/>
<circle cx="47.5" cy="37.5" r="5.5" fill="#D8D8D8"/>
<circle cx="47.5" cy="58.5" r="5.5" fill="#D8D8D8"/>
<circle cx="47.5" cy="79.5" r="5.5" fill="#D8D8D8"/>
<circle cx="47.5" cy="100.5" r="5.5" fill="#D8D8D8"/>
<circle cx="47.5" cy="121.5" r="5.5" fill="#D8D8D8"/>
<circle cx="68.5" cy="5.5" r="5.5" fill="#D8D8D8"/>
<circle cx="68.5" cy="26.5" r="5.5" fill="#D8D8D8"/>
<circle cx="68.5" cy="47.5" r="5.5" fill="#D8D8D8"/>
<circle cx="68.5" cy="68.5" r="5.5" fill="#D8D8D8"/>
<circle cx="68.5" cy="89.5" r="5.5" fill="#D8D8D8"/>
<circle cx="68.5" cy="110.5" r="5.5" fill="#D8D8D8"/>
<circle cx="68.5" cy="131.5" r="5.5" fill="#D8D8D8"/>
<circle cx="89.5" cy="16.5" r="5.5" fill="#D8D8D8"/>
<circle cx="89.5" cy="37.5" r="5.5" fill="#D8D8D8"/>
<circle cx="89.5" cy="58.5" r="5.5" fill="#D8D8D8"/>
<circle cx="89.5" cy="79.5" r="5.5" fill="#D8D8D8"/>
<circle cx="89.5" cy="100.5" r="5.5" fill="#D8D8D8"/>
<circle cx="89.5" cy="121.5" r="5.5" fill="#D8D8D8"/>
<circle cx="110.5" cy="5.5" r="5.5" fill="#D8D8D8"/>
<circle cx="110.5" cy="26.5" r="5.5" fill="#D8D8D8"/>
<circle cx="110.5" cy="47.5" r="5.5" fill="#D8D8D8"/>
<circle cx="110.5" cy="68.5" r="5.5" fill="#D8D8D8"/>
<circle cx="110.5" cy="89.5" r="5.5" fill="#D8D8D8"/>
<circle cx="110.5" cy="110.5" r="5.5" fill="#D8D8D8"/>
<circle cx="110.5" cy="131.5" r="5.5" fill="#D8D8D8"/>
<circle cx="131.5" cy="16.5" r="5.5" fill="#D8D8D8"/>
<circle cx="131.5" cy="37.5" r="5.5" fill="#D8D8D8"/>
<circle cx="131.5" cy="58.5" r="5.5" fill="#D8D8D8"/>
<circle cx="131.5" cy="79.5" r="5.5" fill="#D8D8D8"/>
<circle cx="131.5" cy="100.5" r="5.5" fill="#D8D8D8"/>
<circle cx="131.5" cy="121.5" r="5.5" fill="#D8D8D8"/>
<circle cx="152.5" cy="5.5" r="5.5" fill="#D8D8D8"/>
<circle cx="152.5" cy="26.5" r="5.5" fill="#D8D8D8"/>
<circle cx="152.5" cy="47.5" r="5.5" fill="#D8D8D8"/>
<circle cx="152.5" cy="68.5" r="5.5" fill="#D8D8D8"/>
<circle cx="152.5" cy="89.5" r="5.5" fill="#D8D8D8"/>
<circle cx="152.5" cy="110.5" r="5.5" fill="#D8D8D8"/>
<circle cx="152.5" cy="131.5" r="5.5" fill="#D8D8D8"/>
<circle cx="173.5" cy="16.5" r="5.5" fill="#D8D8D8"/>
<circle cx="173.5" cy="37.5" r="5.5" fill="#D8D8D8"/>
<circle cx="173.5" cy="58.5" r="5.5" fill="#D8D8D8"/>
<circle cx="173.5" cy="79.5" r="5.5" fill="#D8D8D8"/>
<circle cx="173.5" cy="100.5" r="5.5" fill="#D8D8D8"/>
<circle cx="173.5" cy="121.5" r="5.5" fill="#D8D8D8"/>
<circle cx="194.5" cy="5.5" r="5.5" fill="#D8D8D8"/>
<circle cx="194.5" cy="26.5" r="5.5" fill="#D8D8D8"/>
<circle cx="194.5" cy="47.5" r="5.5" fill="#D8D8D8"/>
<circle cx="194.5" cy="68.5" r="5.5" fill="#D8D8D8"/>
<circle cx="194.5" cy="89.5" r="5.5" fill="#D8D8D8"/>
<circle cx="194.5" cy="110.5" r="5.5" fill="#D8D8D8"/>
<circle cx="194.5" cy="131.5" r="5.5" fill="#D8D8D8"/>
<circle cx="215.5" cy="16.5" r="5.5" fill="#D8D8D8"/>
<circle cx="215.5" cy="37.5" r="5.5" fill="#D8D8D8"/>
<circle cx="215.5" cy="58.5" r="5.5" fill="#D8D8D8"/>
<circle cx="215.5" cy="79.5" r="5.5" fill="#D8D8D8"/>
<circle cx="215.5" cy="100.5" r="5.5" fill="#D8D8D8"/>
<circle cx="215.5" cy="121.5" r="5.5" fill="#D8D8D8"/>
<circle cx="236.5" cy="5.5" r="5.5" fill="#D8D8D8"/>
<circle cx="236.5" cy="26.5" r="5.5" fill="#D8D8D8"/>
<circle cx="236.5" cy="47.5" r="5.5" fill="#D8D8D8"/>
<circle cx="236.5" cy="68.5" r="5.5" fill="#D8D8D8"/>
<circle cx="236.5" cy="89.5" r="5.5" fill="#D8D8D8"/>
<circle cx="236.5" cy="110.5" r="5.5" fill="#D8D8D8"/>
<circle cx="236.5" cy="131.5" r="5.5" fill="#D8D8D8"/>
<circle cx="257.5" cy="16.5" r="5.5" fill="#D8D8D8"/>
<circle cx="257.5" cy="37.5" r="5.5" fill="#D8D8D8"/>
<circle cx="257.5" cy="58.5" r="5.5" fill="#D8D8D8"/>
<circle cx="257.5" cy="79.5" r="5.5" fill="#D8D8D8"/>
<circle cx="257.5" cy="100.5" r="5.5" fill="#D8D8D8"/>
<circle cx="257.5" cy="121.5" r="5.5" fill="#D8D8D8"/>
<circle cx="278.5" cy="5.5" r="5.5" fill="#D8D8D8"/>
<circle cx="278.5" cy="26.5" r="5.5" fill="#D8D8D8"/>
<circle cx="278.5" cy="47.5" r="5.5" fill="#D8D8D8"/>
<circle cx="278.5" cy="68.5" r="5.5" fill="#D8D8D8"/>
<circle cx="278.5" cy="89.5" r="5.5" fill="#D8D8D8"/>
<circle cx="278.5" cy="110.5" r="5.5" fill="#D8D8D8"/>
<circle cx="278.5" cy="131.5" r="5.5" fill="#D8D8D8"/>
<circle cx="299.5" cy="16.5" r="5.5" fill="#D8D8D8"/>
<circle cx="299.5" cy="37.5" r="5.5" fill="#D8D8D8"/>
<circle cx="299.5" cy="58.5" r="5.5" fill="#D8D8D8"/>
<circle cx="299.5" cy="79.5" r="5.5" fill="#D8D8D8"/>
<circle cx="299.5" cy="100.5" r="5.5" fill="#D8D8D8"/>
<circle cx="299.5" cy="121.5" r="5.5" fill="#D8D8D8"/>
<circle cx="320.5" cy="5.5" r="5.5" fill="#D8D8D8"/>
<circle cx="320.5" cy="26.5" r="5.5" fill="#D8D8D8"/>
<circle cx="320.5" cy="47.5" r="5.5" fill="#D8D8D8"/>
<circle cx="320.5" cy="68.5" r="5.5" fill="#D8D8D8"/>
<circle cx="320.5" cy="89.5" r="5.5" fill="#D8D8D8"/>
<circle cx="320.5" cy="110.5" r="5.5" fill="#D8D8D8"/>
<circle cx="320.5" cy="131.5" r="5.5" fill="#D8D8D8"/>
<circle cx="341.5" cy="16.5" r="5.5" fill="#D8D8D8"/>
<circle cx="341.5" cy="37.5" r="5.5" fill="#D8D8D8"/>
<circle cx="341.5" cy="58.5" r="5.5" fill="#D8D8D8"/>
<circle cx="341.5" cy="79.5" r="5.5" fill="#D8D8D8"/>
<circle cx="341.5" cy="100.5" r="5.5" fill="#D8D8D8"/>
<circle cx="341.5" cy="121.5" r="5.5" fill="#D8D8D8"/>
<circle cx="362.5" cy="5.5" r="5.5" fill="#D8D8D8"/>
<circle cx="362.5" cy="26.5" r="5.5" fill="#D8D8D8"/>
<circle cx="362.5" cy="47.5" r="5.5" fill="#D8D8D8"/>
<circle cx="362.5" cy="68.5" r="5.5" fill="#D8D8D8"/>
<circle cx="362.5" cy="89.5" r="5.5" fill="#D8D8D8"/>
<circle cx="362.5" cy="110.5" r="5.5" fill="#D8D8D8"/>
<circle cx="362.5" cy="131.5" r="5.5" fill="#D8D8D8"/>
<circle cx="383.5" cy="16.5" r="5.5" fill="#D8D8D8"/>
<circle cx="383.5" cy="37.5" r="5.5" fill="#D8D8D8"/>
<circle cx="383.5" cy="58.5" r="5.5" fill="#D8D8D8"/>
<circle cx="383.5" cy="79.5" r="5.5" fill="#D8D8D8"/>
<circle cx="383.5" cy="100.5" r="5.5" fill="#D8D8D8"/>
<circle cx="383.5" cy="121.5" r="5.5" fill="#D8D8D8"/>
</svg>
