<?xml version="1.0" encoding="utf-8"?>
<!-- Generator: Adobe Illustrator 24.1.2, SVG Export Plug-In . SVG Version: 6.00 Build 0)  -->
<svg version="1.1" id="Layer_1" xmlns="http://www.w3.org/2000/svg" xmlns:xlink="http://www.w3.org/1999/xlink" x="0px" y="0px"
	 viewBox="0 0 336 235.2" style="enable-background:new 0 0 336 235.2;" xml:space="preserve">
<style type="text/css">
	.st0{fill:#010101;}
</style>
<g>
	<path class="st0" d="M16.8,0C7.5,0,0,7.5,0,16.8c0,9.3,7.5,16.8,16.8,16.8h302.4c9.3,0,16.8-7.5,16.8-16.8S328.5,0,319.2,0H16.8z
		 M16.8,100.8c-9.3,0-16.8,7.5-16.8,16.8s7.5,16.8,16.8,16.8h302.4c9.3,0,16.8-7.5,16.8-16.8s-7.5-16.8-16.8-16.8H16.8z M16.8,201.6
		c-9.3,0-16.8,7.5-16.8,16.8c0,9.3,7.5,16.8,16.8,16.8h302.4c9.3,0,16.8-7.5,16.8-16.8c0-9.3-7.5-16.8-16.8-16.8H16.8z"/>
</g>
</svg>
