<svg width="21" height="22" viewBox="0 0 21 22" fill="none" xmlns="http://www.w3.org/2000/svg">
<path d="M20.414 0.624179C19.6328 -0.15858 18.3396 -0.15858 17.5584 0.624179L10.5 7.696L3.44163 0.624179C2.66036 -0.15858 1.36722 -0.15858 0.585953 0.624179C-0.195317 1.40694 -0.195317 2.70254 0.585953 3.4853L7.64432 10.5571L0.585953 17.6289C-0.195317 18.4117 -0.195317 19.7073 0.585953 20.4901C0.990058 20.8949 1.50192 21.0839 2.01379 21.0839C2.52566 21.0839 3.03752 20.8949 3.44163 20.4901L10.5 13.4182L17.5584 20.4901C17.9625 20.8949 18.4743 21.0839 18.9862 21.0839C19.4981 21.0839 20.0099 20.8949 20.414 20.4901C21.1953 19.7073 21.1953 18.4117 20.414 17.6289L13.3557 10.5571L20.414 3.4853C21.1953 2.70254 21.1953 1.40694 20.414 0.624179Z" fill="white"/>
</svg>
