<svg width="273" height="231" viewBox="0 0 273 231" fill="none" xmlns="http://www.w3.org/2000/svg">
<path d="M105.41 186.926H5.36453C2.90937 186.923 0.919766 184.882 0.916992 182.362V153.108C0.919766 150.589 2.90937 148.548 5.36453 148.545H105.41C107.865 148.548 109.854 150.589 109.857 153.108V182.362C109.854 184.882 107.865 186.923 105.41 186.926Z" fill="#EAEAEA"/>
<path d="M220 136.418C215.01 147.865 207.966 157.962 199.899 165.964C181.973 183.748 159.268 193.393 136.869 195.416C125.357 196.463 113.79 195.447 102.493 192.396C91.0008 189.281 80.0393 183.795 69.4234 177.388C58.6147 170.862 48.137 163.461 37.3754 156.814C26.625 150.17 15.5761 144.506 4 140.799C4.84741 140.606 5.66943 140.394 6.46944 140.154C7.22593 140.408 7.97999 140.672 8.73164 140.944C31.3673 149.131 51.3446 165.263 72.5983 177.726C83.258 183.979 94.2921 189.079 105.832 191.808C117.346 194.512 129.096 195.107 140.738 193.577C163.076 190.669 185.799 180.008 202.972 160.935C209.77 153.419 215.434 144.341 219.68 134.16C219.796 134.913 219.902 135.666 220 136.418Z" fill="white"/>
<path d="M105.41 227.973H5.36453C2.90937 227.97 0.919766 225.928 0.916992 223.409V194.155C0.919766 191.636 2.90937 189.595 5.36453 189.592H105.41C107.865 189.595 109.854 191.636 109.857 194.155V223.409C109.854 225.928 107.865 227.97 105.41 227.973Z" fill="#EAEAEA"/>
<ellipse cx="11.2922" cy="167.736" rx="3.11255" ry="3.19849" fill="#ED1846"/>
<ellipse cx="11.2922" cy="208.782" rx="3.11255" ry="3.19849" fill="#ED1846"/>
<path d="M87.5824 169.868H23.1941C21.7779 169.868 20.6299 168.675 20.6299 167.203C20.6299 165.73 21.7779 164.537 23.1941 164.537H87.5824C88.9976 164.539 90.144 165.732 90.144 167.203C90.144 168.674 88.9976 169.866 87.5824 169.868Z" fill="#FFC20E"/>
<path d="M87.5824 210.915H23.1941C21.7779 210.915 20.6299 209.721 20.6299 208.249C20.6299 206.777 21.7779 205.584 23.1941 205.584H87.5824C88.9976 205.585 90.144 206.778 90.144 208.249C90.144 209.72 88.9976 210.913 87.5824 210.915Z" fill="#FFC20E"/>
<path d="M109.501 1.01173C109.469 1.01173 109.437 1.0128 109.404 1.01493C75.0535 3.22637 48.1455 32.6896 48.1455 68.0912C48.1455 103.493 75.0535 132.957 109.404 135.167C109.819 135.196 110.227 135.046 110.529 134.752C110.83 134.464 111.001 134.059 110.999 133.636V2.54686C110.997 1.69833 110.327 1.01154 109.501 1.01172L109.501 1.01173Z" fill="#CCCCCC"/>
<path d="M162.022 112.885C161.512 112.884 161.024 112.677 160.663 112.307L116.248 66.6671C115.888 66.2983 115.685 65.7966 115.687 65.2737V2.54721C115.685 2.00306 115.904 1.48275 116.291 1.11191C116.68 0.736543 117.202 0.543337 117.735 0.578246C152.309 2.80397 179.393 32.4594 179.393 68.0915C179.394 84.2769 173.747 99.9262 163.477 112.198C163.128 112.614 162.627 112.862 162.093 112.883C162.069 112.884 162.045 112.885 162.022 112.885Z" fill="#CCCCCC"/>
<path d="M117.612 135.61C117.122 135.609 116.65 135.418 116.292 135.073C115.904 134.702 115.685 134.181 115.687 133.636V77.0407C115.687 76.2438 116.154 75.5254 116.87 75.2204C117.587 74.9154 118.412 75.0839 118.96 75.6473L157.717 115.474C158.09 115.857 158.292 116.379 158.279 116.92C158.265 117.461 158.036 117.972 157.645 118.335C146.611 128.543 132.548 134.628 117.731 135.606C117.692 135.609 117.652 135.61 117.612 135.61Z" fill="#FFC20E"/>
<path d="M155.29 123.643C183.082 131.625 207.656 147.246 233.707 159.499C233.44 159.885 233.172 160.272 232.9 160.659C232.239 160.347 231.581 160.034 230.924 159.718C217.454 153.258 204.397 145.932 190.986 139.352C177.303 132.636 163.235 126.931 148.473 123.265C128.069 118.215 106.991 116.674 86.0961 118.706C86.046 118.24 86.0009 117.77 85.96 117.304C109.253 115.045 132.751 117.193 155.29 123.643Z" fill="white"/>
<ellipse cx="206.359" cy="120.888" rx="12.7414" ry="13.0928" fill="#A0616A"/>
<path d="M254.033 213.273L254.33 219.802L229.968 224.088L229.529 214.453L254.033 213.273Z" fill="#A0616A"/>
<path d="M260.115 211.312L260.792 226.154L260.533 226.166C258.531 226.301 256.537 225.806 254.817 224.746C253.262 223.727 252.366 222.316 252.296 220.774V220.773L251.883 211.709L260.115 211.312Z" fill="#2F2E41"/>
<path d="M253.352 224.015L259.712 224.015L262.737 198.807L253.35 198.807L253.352 224.015Z" fill="#A0616A"/>
<path d="M251.729 221.881L264.254 221.881H264.255C266.372 221.881 268.402 222.745 269.899 224.283C271.396 225.821 272.237 227.907 272.237 230.083V230.349L251.73 230.35L251.729 221.881Z" fill="#2F2E41"/>
<path d="M193.309 217.908C194.719 217.03 195.679 215.555 195.929 213.88C196.18 212.205 195.695 210.502 194.606 209.229L199.682 157.332L187.592 158.2L186.404 208.94C184.401 211.007 184.219 214.288 185.98 216.576C187.742 218.863 190.89 219.436 193.309 217.908V217.908Z" fill="#A0616A"/>
<path d="M199.623 166.33L187.095 164.761C186.374 164.671 185.727 164.262 185.322 163.642C184.918 163.022 184.796 162.252 184.988 161.532L188.324 149.065C188.808 145.166 192.272 142.405 196.068 142.892C199.864 143.379 202.56 146.93 202.097 150.832L202.423 163.715C202.442 164.461 202.144 165.179 201.606 165.681C201.068 166.183 200.344 166.42 199.623 166.33H199.623Z" fill="#D81F43"/>
<path d="M197.871 225.26C194.781 225.043 192.04 223.144 190.686 220.281C189.332 217.418 189.573 214.03 191.316 211.399L199.499 202.67L229.328 175.217L245.275 161.619C247.167 160.006 249.732 159.506 252.067 160.296C254.402 161.085 256.177 163.053 256.767 165.505L265.099 200.138C265.388 201.331 264.75 202.556 263.623 202.971L254.54 206.331C253.925 206.558 253.246 206.51 252.667 206.199C252.088 205.887 251.662 205.341 251.494 204.692L248.039 191.378L228.815 210.263L234.813 212.532C235.953 212.968 236.579 214.229 236.253 215.434L234.315 222.49C234.04 223.501 233.156 224.209 232.136 224.236L197.871 225.26Z" fill="#2F2E41"/>
<path d="M197.056 205.576L196.267 175.962L191.29 162.974C189.233 157.61 189.585 151.586 192.253 146.514C194.921 141.442 199.632 137.839 205.126 136.669C205.535 136.581 205.944 136.496 206.351 136.413C211.616 135.339 217.077 136.601 221.388 139.888C225.698 143.175 228.456 148.181 228.981 153.67L231.32 175.964L231.311 176.007C227.581 193.053 216.789 202.434 197.347 205.53L197.056 205.576Z" fill="#D81F43"/>
<path d="M208.827 185.006C209.111 184.961 209.397 184.939 209.684 184.94L224.085 163.033L221.358 157.254L229.307 151.885L235.102 161.633C236.064 163.25 235.871 165.326 234.629 166.728L214.92 188.964C215.554 191.197 214.776 193.601 212.968 195C211.159 196.4 208.696 196.503 206.782 195.26C204.868 194.017 203.903 191.686 204.357 189.407C204.812 187.128 206.591 185.375 208.827 185.006Z" fill="#A0616A"/>
<path d="M222.825 162.627C222.171 162.439 221.629 161.968 221.341 161.337L216.36 150.439C214.383 147.38 215.187 143.255 218.157 141.214C221.128 139.174 225.145 139.987 227.14 143.034L235.008 152.007C235.463 152.525 235.675 153.221 235.59 153.913C235.505 154.605 235.131 155.225 234.566 155.611L224.745 162.314C224.18 162.701 223.479 162.815 222.825 162.627Z" fill="#D81F43"/>
<path d="M115.21 218.119H132.581C132.833 218.119 133.038 217.909 133.038 217.649V107.298C133.038 107.038 132.833 106.828 132.581 106.828C132.328 106.828 132.124 107.038 132.124 107.298V217.18H115.21C115.046 217.179 114.894 217.268 114.812 217.414C114.73 217.56 114.73 217.739 114.812 217.885C114.894 218.03 115.046 218.12 115.21 218.119Z" fill="#3F3D56"/>
<path fill-rule="evenodd" clip-rule="evenodd" d="M12.1861 140.196C13.0384 143.405 16.2838 145.277 19.4348 144.377C22.5858 143.476 24.4493 140.145 23.5969 136.936C22.7446 133.727 19.4992 131.855 16.3482 132.755C13.1972 133.655 11.3337 136.987 12.1861 140.196ZM22.7191 137.187C23.4404 139.902 21.8636 142.721 19.1973 143.483L19.1973 143.483C17.917 143.849 16.5514 143.681 15.4012 143.018C14.2509 142.355 13.4101 141.249 13.0638 139.945C12.3426 137.23 13.9193 134.411 16.5856 133.649C19.2518 132.887 21.9979 134.471 22.7191 137.187Z" fill="#CCCCCC"/>
<ellipse rx="3.62936" ry="3.72236" transform="matrix(0.981345 -0.192257 0.182422 0.98322 35.8752 121.577)" fill="#CCCCCC"/>
<ellipse rx="1.90647" ry="1.95529" transform="matrix(0.981345 -0.192253 0.182425 0.98322 51.2482 106.65)" fill="#CCCCCC"/>
<path fill-rule="evenodd" clip-rule="evenodd" d="M162.84 128.52C165.18 128.985 167.562 127.957 168.876 125.914C170.666 123.123 169.92 119.37 167.208 117.525C165.22 116.175 162.636 116.188 160.662 117.559C158.687 118.93 157.71 121.388 158.187 123.788C158.664 126.187 160.501 128.055 162.84 128.52ZM159.829 125.444C158.7 123.727 158.689 121.48 159.801 119.751C161.32 117.394 164.411 116.745 166.708 118.301C168.391 119.444 169.238 121.515 168.855 123.549C168.471 125.583 166.933 127.18 164.958 127.595C162.982 128.01 160.958 127.16 159.829 125.444Z" fill="#CCCCCC"/>
<ellipse cx="176.219" cy="126.644" rx="3.62579" ry="3.72583" fill="#FFC20E"/>
<ellipse cx="189.542" cy="128.607" rx="1.90457" ry="1.95709" fill="#CCCCCC"/>
<path fill-rule="evenodd" clip-rule="evenodd" d="M194.047 69.5759C196.903 71.1565 200.487 70.0514 202.052 67.1076C203.614 64.1634 202.568 60.4986 199.716 58.9155C196.86 57.3349 193.276 58.44 191.711 61.3837C190.146 64.3275 191.192 67.9953 194.047 69.5759ZM192.992 67.4855C191.728 65.8825 191.537 63.648 192.507 61.8238C193.833 59.3356 196.863 58.4013 199.28 59.7352C201.05 60.7147 202.061 62.6966 201.842 64.7567C201.623 66.8169 200.217 68.5496 198.28 69.1469C196.343 69.7442 194.256 69.0885 192.992 67.4855Z" fill="#CCCCCC"/>
<ellipse rx="3.69304" ry="3.65916" transform="matrix(-0.564457 -0.825463 0.810754 -0.585387 210.657 84.9755)" fill="#CCCCCC"/>
<ellipse rx="1.93994" ry="1.92213" transform="matrix(-0.564447 -0.825469 0.810747 -0.585396 222.343 103.092)" fill="#CCCCCC"/>
<path d="M219.824 122.034L219.293 120.644C217.827 116.806 214.324 113.856 210.574 113.304C206.756 112.79 202.991 114.584 200.905 117.91C200.038 119.456 199.353 121.103 198.866 122.816C198.699 123.326 198.53 123.695 198.207 123.806C197.842 123.941 197.48 123.71 196.879 123.328C196.605 123.154 196.259 123.157 195.989 123.337C195.719 123.518 195.575 123.841 195.618 124.169L196.248 128.791L195.721 128.308C192.291 125.171 191.586 119.267 194.064 115.521L188.424 116.712L188.678 116.213C191.021 111.568 195.058 108.065 199.907 106.469L194.505 105.247L195.051 104.901C199.888 101.839 206.27 101.925 211.308 105.116C216.446 108.498 219.623 114.273 219.793 120.54L219.824 122.034Z" fill="#2F2E41"/>
</svg>
