<svg width="531" height="302" viewBox="0 0 531 302" fill="none" xmlns="http://www.w3.org/2000/svg">
<rect x="3.5" y="3.5" width="524" height="295" rx="5.5" fill="white" stroke="url(#paint0_linear_1623_10)" stroke-width="7"/>
<path fill-rule="evenodd" clip-rule="evenodd" d="M361.825 125.663C325.248 143.108 301.615 180.787 301.615 221.656H301.421H281.499H281.306C281.306 194.764 259.668 172.886 233.07 172.886C206.473 172.886 184.835 194.764 184.835 221.656H164.72C164.72 210.337 155.611 201.127 144.416 201.127C133.222 201.127 124.115 210.337 124.115 221.656H104C104 199.121 122.131 180.789 144.416 180.789C154.884 180.789 164.403 184.867 171.589 191.49C182.687 168.457 206.074 152.548 233.07 152.548C255.707 152.548 275.799 163.741 288.245 180.93C299.054 149.051 322.24 122.055 353.244 107.268L361.825 125.663Z" fill="#D81F43"/>
<path fill-rule="evenodd" clip-rule="evenodd" d="M392.644 131.269L400.575 105.913L420.185 123.31L432.932 106.421L410.598 91.9298L433.598 77.7283L421.403 60.7199L401.809 77.0517L396.531 51L376.243 56.6991L385.351 82.1526L359.967 78.1274L358.418 98.9962L384.917 99.3812L373.104 123.45L392.644 131.269Z" fill="#F9C623"/>
<path fill-rule="evenodd" clip-rule="evenodd" d="M431.528 74.8811L423.49 63.5957Z" fill="#F9C623"/>
<defs>
<linearGradient id="paint0_linear_1623_10" x1="510.821" y1="33.3311" x2="44.4153" y2="254.663" gradientUnits="userSpaceOnUse">
<stop stop-color="#D81F43"/>
<stop offset="1" stop-color="#FDD768"/>
</linearGradient>
</defs>
</svg>
