<svg width="352" height="196" viewBox="0 0 352 196" fill="none" xmlns="http://www.w3.org/2000/svg">
<path fill-rule="evenodd" clip-rule="evenodd" d="M271.825 86.6635C235.248 104.108 211.615 141.787 211.615 182.656H211.421H191.499H191.306C191.306 155.764 169.668 133.886 143.07 133.886C116.473 133.886 94.8353 155.764 94.8353 182.656H74.7199C74.7199 171.337 65.6111 162.127 54.4164 162.127C43.2216 162.127 34.1154 171.337 34.1154 182.656H14C14 160.121 32.1305 141.789 54.4164 141.789C64.8836 141.789 74.4028 145.867 81.5886 152.49C92.6866 129.457 116.074 113.548 143.07 113.548C165.707 113.548 185.799 124.741 198.245 141.93C209.054 110.051 232.24 83.0549 263.244 68.2676L271.825 86.6635Z" fill="#D81F43"/>
<path fill-rule="evenodd" clip-rule="evenodd" d="M302.644 92.2685L310.575 66.9128L330.185 84.3097L342.932 67.4211L320.598 52.9298L343.598 38.7283L331.403 21.7199L311.809 38.0517L306.531 12L286.243 17.6991L295.351 43.1526L269.967 39.1274L268.418 59.9962L294.917 60.3812L283.104 84.4497L302.644 92.2685Z" fill="#F9C623"/>
<path fill-rule="evenodd" clip-rule="evenodd" d="M341.528 35.8811L333.49 24.5957Z" fill="#F9C623"/>
</svg>
